<svg width="36" height="36" viewBox="0 0 36 36" fill="none" xmlns="http://www.w3.org/2000/svg">
<circle cx="18" cy="18" r="18" fill="#D9D9D9"/>
<path d="M21.2694 15.1818V16.9716H15.4654V15.1818H21.2694ZM16.9164 25V14.255C16.9164 13.5945 17.0527 13.0447 17.3255 12.6058C17.6025 12.1669 17.9732 11.8388 18.4377 11.6214C18.9022 11.4041 19.4178 11.2955 19.9846 11.2955C20.3851 11.2955 20.7409 11.3274 21.052 11.3913C21.3631 11.4553 21.5932 11.5128 21.7424 11.5639L21.2821 13.3537C21.1841 13.3239 21.0605 13.294 20.9114 13.2642C20.7623 13.2301 20.5961 13.2131 20.4128 13.2131C19.9824 13.2131 19.6777 13.3175 19.4988 13.5263C19.324 13.7308 19.2367 14.0249 19.2367 14.4084V25H16.9164Z" fill="#F9FAFB"/>
</svg>
