<svg width="36" height="36" viewBox="0 0 36 36" fill="none" xmlns="http://www.w3.org/2000/svg">
<circle cx="18" cy="18" r="18" fill="#D9D9D9"/>
<path d="M22.4501 12.5503C22.2523 12.5503 22.059 12.609 21.8946 12.7189C21.7301 12.8287 21.6019 12.9849 21.5262 13.1676C21.4506 13.3504 21.4307 13.5514 21.4693 13.7454C21.5079 13.9394 21.6032 14.1176 21.743 14.2574C21.8829 14.3973 22.0611 14.4925 22.255 14.5311C22.449 14.5697 22.6501 14.5499 22.8328 14.4742C23.0155 14.3985 23.1717 14.2704 23.2816 14.1059C23.3915 13.9415 23.4501 13.7481 23.4501 13.5503C23.4501 13.2851 23.3448 13.0308 23.1572 12.8432C22.9697 12.6557 22.7153 12.5503 22.4501 12.5503ZM26.2835 14.567C26.2672 13.8756 26.1378 13.1915 25.9001 12.542C25.6882 11.9863 25.3584 11.4831 24.9335 11.067C24.5208 10.6399 24.0164 10.3121 23.4585 10.1087C22.8107 9.86379 22.1258 9.73133 21.4335 9.71699C20.5501 9.66699 20.2668 9.66699 18.0001 9.66699C15.7334 9.66699 15.4501 9.66699 14.5667 9.71699C13.8744 9.73133 13.1895 9.86379 12.5417 10.1087C11.9848 10.3142 11.4809 10.6416 11.0667 11.067C10.6396 11.4796 10.3119 11.984 10.1084 12.542C9.86355 13.1898 9.73109 13.8746 9.71675 14.567C9.66675 15.4503 9.66675 15.7337 9.66675 18.0003C9.66675 20.267 9.66675 20.5503 9.71675 21.4337C9.73109 22.126 9.86355 22.8109 10.1084 23.4587C10.3119 24.0166 10.6396 24.521 11.0667 24.9337C11.4809 25.359 11.9848 25.6865 12.5417 25.892C13.1895 26.1369 13.8744 26.2693 14.5667 26.2837C15.4501 26.3337 15.7334 26.3337 18.0001 26.3337C20.2668 26.3337 20.5501 26.3337 21.4335 26.2837C22.1258 26.2693 22.8107 26.1369 23.4585 25.892C24.0164 25.6885 24.5208 25.3608 24.9335 24.9337C25.3603 24.5191 25.6904 24.0155 25.9001 23.4587C26.1378 22.8092 26.2672 22.1251 26.2835 21.4337C26.2835 20.5503 26.3335 20.267 26.3335 18.0003C26.3335 15.7337 26.3335 15.4503 26.2835 14.567ZM24.7835 21.3337C24.7774 21.8626 24.6816 22.3867 24.5001 22.8837C24.3671 23.2463 24.1534 23.574 23.8751 23.842C23.6048 24.1174 23.2778 24.3307 22.9168 24.467C22.4199 24.6485 21.8958 24.7443 21.3668 24.7503C20.5335 24.792 20.2251 24.8003 18.0335 24.8003C15.8417 24.8003 15.5334 24.8003 14.7001 24.7503C14.1508 24.7606 13.6039 24.676 13.0834 24.5003C12.7382 24.3571 12.4262 24.1443 12.1667 23.8753C11.8901 23.6076 11.6791 23.2797 11.5501 22.917C11.3466 22.413 11.2338 21.8769 11.2167 21.3337C11.2167 20.5003 11.1667 20.192 11.1667 18.0003C11.1667 15.8087 11.1667 15.5003 11.2167 14.667C11.2205 14.1262 11.3192 13.5903 11.5084 13.0837C11.6551 12.7319 11.8803 12.4184 12.1667 12.167C12.4199 11.8805 12.7328 11.6529 13.0834 11.5003C13.5914 11.317 14.1267 11.2212 14.6667 11.217C15.5001 11.217 15.8084 11.167 18.0001 11.167C20.1918 11.167 20.5001 11.167 21.3335 11.217C21.8624 11.2231 22.3865 11.3189 22.8835 11.5003C23.2621 11.6409 23.602 11.8694 23.8751 12.167C24.1482 12.423 24.3616 12.7359 24.5001 13.0837C24.6853 13.5911 24.7812 14.1268 24.7835 14.667C24.8251 15.5003 24.8335 15.8087 24.8335 18.0003C24.8335 20.192 24.8251 20.5003 24.7835 21.3337ZM18.0001 13.7253C17.1549 13.727 16.3292 13.9791 15.6273 14.4498C14.9254 14.9206 14.3787 15.5888 14.0564 16.3701C13.7342 17.1514 13.6507 18.0107 13.8166 18.8394C13.9825 19.6682 14.3903 20.4291 14.9885 21.0261C15.5867 21.6232 16.3484 22.0295 17.1775 22.1938C18.0065 22.3581 18.8657 22.2729 19.6463 21.9491C20.427 21.6253 21.0942 21.0774 21.5636 20.3745C22.0329 19.6717 22.2835 18.8455 22.2835 18.0003C22.2846 17.4379 22.1745 16.8808 21.9595 16.3611C21.7445 15.8414 21.4289 15.3693 21.0308 14.972C20.6328 14.5747 20.1601 14.2601 19.64 14.0461C19.1198 13.8321 18.5625 13.7231 18.0001 13.7253ZM18.0001 20.7753C17.4512 20.7753 16.9147 20.6126 16.4584 20.3077C16.002 20.0027 15.6463 19.5693 15.4363 19.0623C15.2263 18.5552 15.1713 17.9973 15.2784 17.459C15.3855 16.9207 15.6498 16.4262 16.0379 16.0381C16.4259 15.65 16.9204 15.3857 17.4587 15.2787C17.997 15.1716 18.555 15.2265 19.0621 15.4366C19.5691 15.6466 20.0025 16.0023 20.3074 16.4586C20.6124 16.915 20.7751 17.4515 20.7751 18.0003C20.7751 18.3647 20.7033 18.7256 20.5639 19.0623C20.4244 19.399 20.22 19.7049 19.9623 19.9625C19.7047 20.2202 19.3987 20.4246 19.0621 20.5641C18.7254 20.7035 18.3645 20.7753 18.0001 20.7753Z" fill="#F9FAFB"/>
</svg>
