<svg width="35" height="37" viewBox="0 0 35 37" fill="none" xmlns="http://www.w3.org/2000/svg">
<circle cx="17.5952" cy="10.4524" r="8.45238" stroke="#B6B6B6" stroke-width="3"/>
<path d="M28.826 23.6026C31.394 26.1707 32.9815 29.5361 33.3472 33.117C33.3983 33.6174 33.4239 33.8676 33.3241 34.1037C33.2419 34.2982 33.0692 34.4894 32.884 34.591C32.6593 34.7143 32.3824 34.7143 31.8286 34.7143H17.7143M28.826 23.6026C25.879 20.6556 21.882 19 17.7143 19C13.5466 19 9.54961 20.6556 6.60261 23.6026M28.826 23.6026C31.5365 26.3132 33.1546 29.9119 33.3968 33.7148C33.4319 34.266 32.9809 34.7143 32.4286 34.7143H17.7143M6.60261 23.6026C4.03454 26.1707 2.44711 29.5361 2.08134 33.117C2.03023 33.6174 2.00467 33.8676 2.10447 34.1037C2.1867 34.2982 2.3594 34.4894 2.54455 34.591C2.76924 34.7143 3.04616 34.7143 3.6 34.7143L17.7143 34.7143M6.60261 23.6026C3.89207 26.3131 2.274 29.9119 2.03179 33.7148C1.99668 34.266 2.44772 34.7143 3 34.7143L17.7143 34.7143" stroke="#B6B6B6" stroke-width="3"/>
</svg>
