<svg width="36" height="36" viewBox="0 0 36 36" fill="none" xmlns="http://www.w3.org/2000/svg">
<circle cx="18" cy="18" r="18" fill="#D9D9D9"/>
<path d="M27.1666 16.0919C27.2078 14.8991 26.9469 13.7152 26.4082 12.6502C26.0427 12.2132 25.5355 11.9183 24.9749 11.8169C22.6562 11.6065 20.3278 11.5203 17.9999 11.5586C15.6805 11.5185 13.3605 11.602 11.0499 11.8086C10.5931 11.8917 10.1704 12.1059 9.83328 12.4252C9.08328 13.1169 8.99994 14.3002 8.91661 15.3002C8.7957 17.0982 8.7957 18.9023 8.91661 20.7002C8.94072 21.2631 9.02452 21.8218 9.16661 22.3669C9.26709 22.7878 9.47038 23.1772 9.75828 23.5002C10.0977 23.8364 10.5303 24.0629 10.9999 24.1502C12.7965 24.372 14.6068 24.4639 16.4166 24.4252C19.3332 24.4669 21.8916 24.4252 24.9166 24.1919C25.3978 24.1099 25.8426 23.8832 26.1916 23.5419C26.4249 23.3085 26.5991 23.0228 26.6999 22.7086C26.9979 21.7941 27.1443 20.837 27.1332 19.8752C27.1666 19.4086 27.1666 16.5919 27.1666 16.0919ZM16.1166 20.3752V15.2169L21.0499 17.8086C19.6666 18.5752 17.8416 19.4419 16.1166 20.3752Z" fill="#F9FAFB"/>
</svg>
